<?xml version="1.0" encoding="UTF-8"?>
<svg width="32" height="32" viewBox="0 0 32 32" fill="none" xmlns="http://www.w3.org/2000/svg">
  <!-- Background -->
  <rect width="32" height="32" rx="6" fill="#171717"/>
  
  <!-- DR text as path -->
  <path d="M5.76 14H8.52C9.34 14 9.84 13.56 9.84 12.72V11.28C9.84 10.44 9.34 10 8.52 10H5.76V14ZM6.84 11.08H8.16C8.62 11.08 8.76 11.28 8.76 11.68V12.32C8.76 12.72 8.62 12.92 8.16 12.92H6.84V11.08Z" fill="#B71C1C"/>
  <path d="M12.29 14H14.61C15.45 14 15.85 13.52 15.85 12.56V11.44C15.85 10.48 15.45 10 14.61 10H12.29V14ZM13.37 11.08H14.33C14.73 11.08 14.77 11.28 14.77 11.68V12.32C14.77 12.72 14.73 12.92 14.33 12.92H13.37V11.08Z" fill="#B71C1C"/>
  
  <!-- FARES text as path -->
  <path d="M5.1 22H9.7V21.05H6.17V19.9H9.27V18.95H6.17V18.05H9.61V17.1H5.1V22Z" fill="white"/>
  <path d="M10.51 22H14.11V21.05H11.58V17.1H10.51V22Z" fill="white"/>
  <path d="M14.76 22H15.83V20.27H17.45C18.27 20.27 18.97 19.61 18.97 18.68C18.97 17.76 18.27 17.1 17.45 17.1H14.76V22ZM15.83 19.32V18.05H17.11C17.57 18.05 17.89 18.35 17.89 18.68C17.89 19.02 17.57 19.32 17.11 19.32H15.83Z" fill="white"/>
  <path d="M20.1 22H24.7V21.05H21.17V19.9H24.27V18.95H21.17V18.05H24.61V17.1H20.1V22Z" fill="white"/>
  <path d="M26.14 22H27.31L28.22 19.98L29.13 22H30.3L31.89 17.1H30.79L29.92 19.7L29 17.57H27.44L26.52 19.7L25.65 17.1H24.55L26.14 22Z" fill="white"/>
  
  <!-- Small horizontal line -->
  <rect x="4" y="24" width="24" height="1" fill="#B71C1C"/>
  
  <!-- COACHING text as path (simplified for small size) -->
  <path d="M5.62 29H6.43L6.99 27.84H8.75L9.31 29H10.12L8.36 25.1H7.38L5.62 29ZM7.27 27.14L7.87 25.8L8.47 27.14H7.27Z" fill="white"/>
  <path d="M10.79 29H13.59V28.26H11.65V25.1H10.79V29Z" fill="white"/>
  <path d="M14.34 29H15.2V25.1H14.34V29Z" fill="white"/>
  <path d="M16.53 29H17.39V25.84H18.83V25.1H15.09V25.84H16.53V29Z" fill="white"/>
  <path d="M19.97 29H20.83V25.1H19.97V29Z" fill="white"/>
  <path d="M22.12 29H23.15L24.92 26.9V29H25.78V25.1H24.75L22.98 27.2V25.1H22.12V29Z" fill="white"/>
  <path d="M27.3 29H28.16V27.42L30.02 25.1H29.02L27.73 26.64L26.44 25.1H25.44L27.3 27.42V29Z" fill="white"/>
</svg> 